<svg width="14" height="14" viewBox="0 0 14 14" fill="none" xmlns="http://www.w3.org/2000/svg">
<path d="M5.9375 0.875H6.78125V0.875C7.81397 0.875 8.60147 1.79917 8.4376 2.81881L7.89542 6.19236C7.73959 7.16198 6.90283 7.875 5.92076 7.875H3.70424C2.72217 7.875 1.88541 7.16198 1.72958 6.19236L1.1874 2.81881C1.02353 1.79917 1.81103 0.875 2.84375 0.875V0.875H3.6875" stroke="#2B2E38" stroke-linecap="round"/>
<path d="M4.70215 8.02941V10.125C4.70215 11.7819 6.04529 13.125 7.70215 13.125H8.37503C10.0319 13.125 11.375 11.7819 11.375 10.125V5.25" stroke="#2B2E38"/>
<circle cx="11.375" cy="4.375" r="1.25" stroke="#2B2E38"/>
<rect x="5.72555" y="0.51925" width="0.622484" height="0.690016" rx="0.311242" fill="#2B2E38" stroke="#2B2E38" stroke-width="0.622484"/>
<rect x="3.28683" y="0.51925" width="0.622484" height="0.690016" rx="0.311242" fill="#2B2E38" stroke="#2B2E38" stroke-width="0.622484"/>
</svg>
