<svg width="14" height="14" viewBox="0 0 14 14" fill="none" xmlns="http://www.w3.org/2000/svg">
<path d="M5.343 6.77866C5.3255 6.77866 5.31383 6.77866 5.29633 6.77866C5.26717 6.77283 5.22633 6.77283 5.19133 6.77866C3.49967 6.72616 2.22217 5.39616 2.22217 3.75699C2.22217 2.08866 3.58133 0.729492 5.24967 0.729492C6.918 0.729492 8.27717 2.08866 8.27717 3.75699C8.27133 5.39616 6.988 6.72616 5.3605 6.77866C5.35467 6.77866 5.34883 6.77866 5.343 6.77866ZM5.24967 1.60449C4.0655 1.60449 3.09717 2.57283 3.09717 3.75699C3.09717 4.92366 4.00717 5.86283 5.168 5.90366C5.203 5.89783 5.27883 5.89783 5.35467 5.90366C6.498 5.85116 7.39633 4.91199 7.40217 3.75699C7.40217 2.57283 6.43383 1.60449 5.24967 1.60449Z" fill="#2B2E38"/>
<path d="M9.64813 6.85384C9.63063 6.85384 9.61313 6.85384 9.59563 6.84801C9.35647 6.87134 9.11147 6.70217 9.08813 6.46301C9.0648 6.22384 9.21063 6.00801 9.4498 5.97884C9.5198 5.97301 9.59563 5.97301 9.6598 5.97301C10.5115 5.92634 11.1765 5.22634 11.1765 4.36884C11.1765 3.48217 10.459 2.76467 9.5723 2.76467C9.33313 2.77051 9.1348 2.57217 9.1348 2.33301C9.1348 2.09384 9.33313 1.89551 9.5723 1.89551C10.9373 1.89551 12.0515 3.00967 12.0515 4.37467C12.0515 5.71634 11.0015 6.80134 9.66563 6.85384C9.6598 6.85384 9.65397 6.85384 9.64813 6.85384Z" fill="#2B2E38"/>
<path d="M5.34894 13.1538C4.20561 13.1538 3.05644 12.8622 2.18727 12.2788C1.37644 11.7422 0.933105 11.0072 0.933105 10.208C0.933105 9.40884 1.37644 8.66801 2.18727 8.12551C3.93727 6.96467 6.77227 6.96467 8.51061 8.12551C9.31561 8.66217 9.76477 9.39717 9.76477 10.1963C9.76477 10.9955 9.32144 11.7363 8.51061 12.2788C7.63561 12.8622 6.49227 13.1538 5.34894 13.1538ZM2.67144 8.86051C2.11144 9.23384 1.80811 9.71217 1.80811 10.2138C1.80811 10.7097 2.11727 11.188 2.67144 11.5555C4.12394 12.5297 6.57394 12.5297 8.02644 11.5555C8.58644 11.1822 8.88977 10.7038 8.88977 10.2022C8.88977 9.70634 8.58061 9.22801 8.02644 8.86051C6.57394 7.89217 4.12394 7.89217 2.67144 8.86051Z" fill="#2B2E38"/>
<path d="M10.6982 12.1042C10.494 12.1042 10.3132 11.9642 10.2724 11.7542C10.2257 11.515 10.3774 11.2875 10.6107 11.235C10.9782 11.1592 11.3165 11.0133 11.579 10.8092C11.9115 10.5583 12.0924 10.2433 12.0924 9.91084C12.0924 9.57834 11.9115 9.26334 11.5849 9.01834C11.3282 8.82001 11.0074 8.68001 10.6282 8.59251C10.3949 8.54001 10.2432 8.30668 10.2957 8.06751C10.3482 7.83418 10.5815 7.68251 10.8207 7.73501C11.3224 7.84584 11.7599 8.04418 12.1157 8.31834C12.6582 8.72668 12.9674 9.30418 12.9674 9.91084C12.9674 10.5175 12.6524 11.095 12.1099 11.5092C11.7482 11.7892 11.2932 11.9933 10.7915 12.0925C10.7565 12.1042 10.7274 12.1042 10.6982 12.1042Z" fill="#2B2E38"/>
</svg>
